<?xml version="1.0" encoding="UTF-8" standalone="no"?>
<!-- Created with Inkscape (http://www.inkscape.org/) -->

<svg
   version="1.1"
   id="svg1"
   width="128"
   height="128"
   viewBox="0 0 128 128"
   xmlns="http://www.w3.org/2000/svg"
   xmlns:svg="http://www.w3.org/2000/svg">
  <defs
     id="defs1" />
  <g
     id="layer1">
    <path
       style="fill:#676767"
       d="m 36.454136,46.810425 15.879642,8.768324 c 9.682486,-11.175313 25.62131,-4.19789 25.877466,8.078684 0.275127,13.18578 -16.046218,19.887366 -25.75704,8.681792 -0.0636,-0.07339 -15.818928,8.845162 -15.818928,8.845162 C 52.467124,103.84115 76.394547,96.456661 83.4531,89.832471 104.2917,72.706032 97.768818,45.671064 79.764032,35.745213 65.727687,28.007123 48.208751,30.449334 36.454136,46.810425 Z"
       id="path1" />
    <path
       style="fill:#676767"
       d="M 90.947111,32.060492 106.80295,17.261082 C 106.79244,17.240064 91.219872,0.52489936 63.646196,0.86397551 35.905079,1.2051107 16.809926,18.408536 9.0932774,33.016531 -4.1850056,55.428932 1.0912805,78.357681 6.6402176,90.797435 13.290088,105.70529 32.991311,127.17163 62.842998,127.27342 94.072817,127.3799 106.73235,110.768 106.73235,110.768 L 90.961451,95.687411 C 90.914629,95.827877 70.390315,113.5231 46.386418,101.75384 23.310791,91.167361 21.917218,66.796434 22.221038,66.015002 22.477219,65.356097 20.30449,45.0984 37.668938,31.545974 55.997157,17.241355 78.326462,21.094191 90.947111,32.060492 Z"
       id="path2" />
  </g>
</svg>
